<svg width="640" height="240" viewBox="0 0 640 240" fill="none" xmlns="http://www.w3.org/2000/svg">
  <rect width="640" height="240" rx="24" fill="none"/>
  <rect x="72" y="74" width="36" height="72" rx="4" fill="#A5CDD6"/>
  <rect x="122" y="38" width="36" height="108" rx="4" fill="#B9D8DE"/>
  <rect x="172" y="0" width="40" height="146" rx="4" fill="#3FA7B3"/>
  <path d="M0 192.36H20.16V199.2H8.28V205.68H19.08V212.34H8.28V219H20.16V225.84H0V192.36Z" fill="#3FA7B3"/>
  <path d="M24.9066 192.36H33.1866L38.2266 211.08L43.4466 192.36H51.5466L42.3666 225.84H34.1766L24.9066 192.36Z" fill="#3FA7B3"/>
  <path d="M55.3711 192.36H75.5311V199.2H63.6511V205.68H74.4511V212.34H63.6511V219H75.5311V225.84H55.3711V192.36Z" fill="#3FA7B3"/>
  <path d="M80.2777 192.36H88.5577V219H99.7177V225.84H80.2777V192.36Z" fill="#3FA7B3"/>
  <path d="M111.347 192.36H120.437L129.437 225.84H121.427L119.807 219.09H111.797L110.177 225.84H102.257L111.347 192.36ZM118.277 212.88L115.757 201L113.327 212.88H118.277Z" fill="#3FA7B3"/>
  <path d="M141.592 199.56H134.122V192.36H157.342V199.56H149.872V225.84H141.592V199.56Z" fill="#3FA7B3"/>
  <path d="M160.964 192.36H169.244V225.84H160.964V192.36Z" fill="#3FA7B3"/>
  <path d="M175.101 192.36H183.381V205.95L191.211 192.36H199.941L191.571 206.04L200.211 225.84H191.211L185.631 212.43L183.381 216.03V225.84H175.101V192.36Z" fill="#3FA7B3"/>
  <path d="M212.556 192.36H221.646L230.646 225.84H222.636L221.016 219.09H213.006L211.386 225.84H203.466L212.556 192.36ZM219.486 212.88L216.966 201L214.536 212.88H219.486Z" fill="#3FA7B3"/>
  <path d="M242.981 199.56H235.511V192.36H258.731V199.56H251.261V225.84H242.981V199.56Z" fill="#3FA7B3"/>
  <path d="M261.544 192.36H269.824V205.95L277.654 192.36H286.384L278.014 206.04L286.654 225.84H277.654L272.074 212.43L269.824 216.03V225.84H261.544V192.36Z" fill="#3FA7B3"/>
  <path d="M298.998 192.36H308.088L317.088 225.84H309.078L307.458 219.09H299.448L297.828 225.84H289.908L298.998 192.36ZM305.928 212.88L303.408 201L300.978 212.88H305.928Z" fill="#3FA7B3"/>
  <path d="M321.574 192.36H329.854V219H341.014V225.84H321.574V192.36Z" fill="#3FA7B3"/>
  <path d="M344.471 192.36H352.751V205.95L360.581 192.36H369.311L360.941 206.04L369.581 225.84H360.581L355.001 212.43L352.751 216.03V225.84H344.471V192.36Z" fill="#3FA7B3"/>
</svg>